<svg xmlns="http://www.w3.org/2000/svg" viewBox="15 65 185 165" role="img" aria-label="aireon">
  <path
    fill="#000000"
    fill-rule="evenodd"
    d="M 31.25,99.5 c -6.915012,11.15301 -13.418189,22.48189 -14.25,36.75 -3.048073,15.15862 -0.04782,30.53859 5,43.5 2.117508,5.84815 7.697934,11.09884 7.75,15.75 4.184785,0.32723 8.552448,10.37892 14.25,12.5 9.251118,8.01205 19.819047,12.13779 32.420379,15 18.003721,4.06213 38.630501,1.86247 53.329621,-6 8.24296,-3.69933 21.11058,-10.28739 15.75,-22.25 -4.75992,-7.85432 -15.35683,-5.96065 -20.5,0.5 -16.69141,10.42489 -43.29751,10.77439 -59.75,0 C 52.361746,189.04526 43.842278,175.80274 40.75,162.57962 36.045825,146.96144 39.749363,128.0917 46.5,116.25 53.449676,105.89224 64.030088,95.82424 77,92.75 c 14.640951,-5.229057 35.62451,-3.882694 47.5,4.25 10.45348,4.40329 17.71285,14.76068 22.75,23.25 6.9658,15.28525 4.6613,38.55485 5.51111,57.74149 -1.46638,18.23929 5.96707,35.6398 20.98889,43.00851 8.28398,7.68659 23.74352,0.4219 20,-12.25 -3.03766,-7.67817 -15.36291,-7.68124 -16,-17 -4.5252,-13.853 -1.40158,-32.80772 -2.82931,-48.66094 C 175.0645,127.15934 170.02453,113.18112 162.5,102.5 151.10566,86.645432 135.09459,75.11581 114.82962,71.25 91.146619,65.071969 63.446958,71.622482 46.75,84.75 41.135736,88.752319 36.083337,94.62688 31.25,99.5 Z"
  />
</svg>
